HIERARCHY
ROOT Hips
{
	OFFSET -0.001795 -0.223333 0.028219
	CHANNELS 6 Xposition Yposition Zposition Zrotation Yrotation Xrotation 
	JOINT LeftUpLeg
	{
		OFFSET 0.069520 -0.091406 -0.006815
		CHANNELS 3 Zrotation Yrotation Xrotation
		JOINT LeftLeg
		{
			OFFSET 0.034277 -0.375199 -0.004496
			CHANNELS 3 Zrotation Yrotation Xrotation
			JOINT LeftFoot
			{
				OFFSET -0.013596 -0.397961 -0.043693
				CHANNELS 3 Zrotation Yrotation Xrotation
				JOINT LeftToe
				{
					OFFSET 0.026358 -0.055791 0.119288
					CHANNELS 3 Zrotation Yrotation Xrotation
					End Site
					{
						OFFSET 0.000000 0.000000 0.000000
					}
				}
			}
		}
	}
	JOINT RightUpLeg
	{
		OFFSET -0.067670 -0.090522 -0.004320
		CHANNELS 3 Zrotation Yrotation Xrotation
		JOINT RightLeg
		{
			OFFSET -0.038290 -0.382569 -0.008850
			CHANNELS 3 Zrotation Yrotation Xrotation
			JOINT RightFoot
			{
				OFFSET 0.015774 -0.398415 -0.042312
				CHANNELS 3 Zrotation Yrotation Xrotation
				JOINT RightToe
				{
					OFFSET -0.025372 -0.048144 0.123348
					CHANNELS 3 Zrotation Yrotation Xrotation
					End Site
					{
						OFFSET 0.000000 0.000000 0.000000
					}
				}
			}
		}
	}
	JOINT Spine
	{
		OFFSET -0.002533 0.108963 -0.026696
		CHANNELS 3 Zrotation Yrotation Xrotation
		JOINT Spine1
		{
			OFFSET 0.005487 0.135180 0.001092
			CHANNELS 3 Zrotation Yrotation Xrotation
			JOINT Spine2
			{
				OFFSET 0.001457 0.052922 0.025425
				CHANNELS 3 Zrotation Yrotation Xrotation
				JOINT Neck
				{
					OFFSET -0.002778 0.213870 -0.042857
					CHANNELS 3 Zrotation Yrotation Xrotation
					JOINT Head
					{
						OFFSET 0.005152 0.064970 0.051349
						CHANNELS 3 Zrotation Yrotation Xrotation
						End Site
						{
							OFFSET 0.000000 0.000000 0.000000
						}
					}
				}
				JOINT LeftShoulder
				{
					OFFSET 0.078845 0.121749 -0.034090
					CHANNELS 3 Zrotation Yrotation Xrotation
					JOINT LeftArm
					{
						OFFSET 0.090977 0.030469 -0.008868
						CHANNELS 3 Zrotation Yrotation Xrotation
						JOINT LeftForeArm
						{
							OFFSET 0.259612 -0.012772 -0.027456
							CHANNELS 3 Zrotation Yrotation Xrotation
							JOINT LeftHand
							{
								OFFSET 0.249234 0.008986 -0.001171
								CHANNELS 3 Zrotation Yrotation Xrotation
								End Site
								{
									OFFSET 0.000000 0.000000 0.000000
								}
							}
						}
					}
				}
				JOINT RightShoulder
				{
					OFFSET -0.081759 0.118833 -0.038615
					CHANNELS 3 Zrotation Yrotation Xrotation
					JOINT RightArm
					{
						OFFSET -0.096012 0.032551 -0.009143
						CHANNELS 3 Zrotation Yrotation Xrotation
						JOINT RightForeArm
						{
							OFFSET -0.253742 -0.013329 -0.021401
							CHANNELS 3 Zrotation Yrotation Xrotation
							JOINT RightHand
							{
								OFFSET -0.255298 0.007772 -0.005559
								CHANNELS 3 Zrotation Yrotation Xrotation
								End Site
								{
									OFFSET 0.000000 0.000000 0.000000
								}
							}
						}
					}
				}
			}
		}
	}
}
MOTION
Frames: 16
Frame Time: 0.050000
-0.039761 0.840345 0.007682 -3.674407 -22.197725 3.361722 13.997541 5.556728 -39.622138 2.907321 1.659934 53.151042 7.464326 14.865026 3.956695 0.000000 0.000000 0.000000 -1.559545 8.029428 -45.065969 16.734437 -2.295468 48.333907 -7.445809 -19.042649 -2.856893 0.000000 0.000000 0.000000 1.402540 3.892355 60.579545 0.368442 -0.024665 6.921914 -11.379808 7.115615 2.959853 17.769963 -11.018863 -10.536119 0.000000 0.000000 0.000000 -11.720755 -37.124647 15.463888 -41.644942 -19.819678 1.950175 5.287445 -60.051408 -1.471349 0.000000 0.000000 0.000000 14.934768 33.050517 17.129098 42.382256 35.582484 8.264690 11.441840 45.553041 6.626252 0.000000 0.000000 0.000000 
-0.048721 0.841551 0.007484 -3.907052 -24.257132 2.392920 14.707981 6.034071 -38.130065 3.712280 1.739755 53.563945 7.077715 14.106361 4.453086 0.000000 0.000000 0.000000 -0.607065 8.299157 -43.654224 17.693459 -2.201931 48.173712 -7.270262 -18.563983 -2.667185 0.000000 0.000000 0.000000 1.310469 4.749773 61.260727 0.159784 0.132775 7.524101 -11.382090 6.328594 2.982109 16.977953 -10.777399 -9.704445 0.000000 0.000000 0.000000 -12.074595 -37.493659 15.912758 -40.056934 -18.032791 1.254751 6.581845 -61.158561 -2.131567 0.000000 0.000000 0.000000 16.386020 35.069649 18.399866 41.313951 37.678905 8.789687 8.204309 42.132135 4.681363 0.000000 0.000000 0.000000 
-0.057661 0.845503 0.007063 -4.010772 -26.387056 1.695286 15.342516 6.427313 -36.572775 4.730517 1.685389 53.671166 6.394841 12.857405 6.031023 0.000000 0.000000 0.000000 0.492012 8.596430 -42.351026 17.875979 -1.751451 47.229873 -6.960046 -17.900321 -1.837644 0.000000 0.000000 0.000000 1.036163 5.631027 61.254833 -0.217410 0.415522 8.354777 -11.383473 5.493917 2.974908 16.223744 -10.452229 -9.167722 0.000000 0.000000 0.000000 -11.594121 -37.086026 15.791941 -40.123975 -16.773014 0.806462 5.963225 -62.506608 -1.654569 0.000000 0.000000 0.000000 17.398910 36.457596 19.171827 40.605408 38.277767 8.840096 6.886596 40.608511 3.922307 0.000000 0.000000 0.000000 
-0.066283 0.850304 0.006683 -4.127798 -28.637626 1.164375 15.871278 6.780743 -35.035534 5.818814 1.549354 53.021341 5.668612 11.550863 7.501638 0.000000 0.000000 0.000000 1.614588 8.792913 -40.835670 17.948772 -1.226408 46.302262 -6.419304 -16.532716 -1.481561 0.000000 0.000000 0.000000 1.089557 6.334243 61.162098 -0.686815 0.766170 8.937974 -11.448258 4.214787 2.781829 14.943530 -9.777604 -8.487429 0.000000 0.000000 0.000000 -12.318047 -36.328152 15.920607 -39.436014 -15.201076 0.256154 4.860762 -64.291142 -0.775961 0.000000 0.000000 0.000000 18.391806 37.335304 19.506422 40.104287 38.768460 8.946300 6.127235 39.237839 3.412462 0.000000 0.000000 0.000000 
-0.074421 0.854774 0.006555 -4.102966 -30.704486 0.626875 15.932817 6.784402 -33.270158 7.005916 1.312403 51.920942 5.223662 10.711662 8.677631 0.000000 0.000000 0.000000 2.873806 8.941130 -39.297226 17.513094 -0.568022 45.139418 -6.102325 -15.842266 -0.942256 0.000000 0.000000 0.000000 0.935149 7.009322 60.623203 -1.325748 1.246002 9.656960 -11.428098 2.610804 2.796403 13.499896 -8.876037 -8.267500 0.000000 0.000000 0.000000 -12.181143 -35.134186 15.695570 -39.419967 -14.161158 -0.144092 6.234336 -65.809636 -1.336428 0.000000 0.000000 0.000000 18.982072 38.196014 19.553459 40.419371 38.701147 9.110357 5.988759 38.720483 3.213534 0.000000 0.000000 0.000000 
-0.082273 0.857659 0.006733 -3.953671 -32.318259 0.104181 16.064870 6.749845 -31.672977 7.826294 1.186070 50.883893 4.981098 10.215400 9.306615 0.000000 0.000000 0.000000 3.546066 8.930798 -38.148900 17.540842 -0.217505 44.534427 -5.829359 -15.127826 -0.792455 0.000000 0.000000 0.000000 0.991787 7.467935 60.417084 -2.263623 1.841076 9.597722 -10.903704 1.296077 3.349551 12.151604 -7.919039 -8.751406 0.000000 0.000000 0.000000 -12.370486 -34.353242 15.739843 -39.333474 -13.787761 -0.359733 7.433027 -66.038059 -1.786681 0.000000 0.000000 0.000000 18.651993 38.898359 19.235089 40.598036 39.182542 9.397797 5.796202 37.617187 2.958751 0.000000 0.000000 0.000000 
-0.090179 0.857963 0.007343 -3.793067 -33.204778 -0.257625 16.178332 6.702549 -30.624537 8.503430 0.962083 50.091520 4.567352 9.466038 9.604411 0.000000 0.000000 0.000000 4.193638 9.010730 -37.526178 17.670308 -0.084767 44.116119 -5.899193 -15.558308 -0.138951 0.000000 0.000000 0.000000 0.949681 7.630860 59.755283 -2.674387 2.107454 9.471914 -10.934231 0.535156 3.801320 11.179278 -7.240883 -9.153430 0.000000 0.000000 0.000000 -13.108657 -33.661920 15.854358 -39.056779 -13.253530 -0.606646 8.104338 -66.351077 -2.034742 0.000000 0.000000 0.000000 18.870167 38.989522 18.950900 40.790453 38.796748 9.352043 5.684584 37.774318 2.873851 0.000000 0.000000 0.000000 
-0.098389 0.857223 0.008574 -3.254917 -33.381363 -0.794200 16.082113 6.535581 -29.972636 8.690664 0.885688 49.567217 4.159286 8.712542 8.711016 0.000000 0.000000 0.000000 4.246810 8.981292 -37.340754 18.266988 -0.254844 44.196822 -6.005293 -16.045029 0.449367 0.000000 0.000000 0.000000 0.830230 7.782768 59.755299 -3.335459 2.426775 8.731744 -10.783023 -0.336006 4.726366 10.383642 -6.610448 -10.203104 0.000000 0.000000 0.000000 -12.643250 -33.570263 15.912082 -39.207518 -13.658168 -0.567273 11.435608 -65.265079 -3.907593 0.000000 0.000000 0.000000 18.184946 39.293962 18.528072 41.115735 39.437372 9.667565 5.063917 37.372752 2.583478 0.000000 0.000000 0.000000 
-0.106838 0.855293 0.010344 -2.951737 -33.163248 -1.013022 16.160064 6.492064 -29.835641 8.848644 0.725562 49.553992 3.734247 7.980463 8.147669 0.000000 0.000000 0.000000 4.104901 9.083966 -37.791815 19.122127 -0.642703 44.670472 -6.276612 -17.097040 1.501994 0.000000 0.000000 0.000000 0.734301 7.698941 59.515107 -3.755913 2.620814 8.268313 -10.794955 -0.855889 5.205556 9.627699 -5.945089 -11.494902 0.000000 0.000000 0.000000 -12.406534 -33.829385 16.112898 -39.150118 -14.376398 -0.384571 14.872382 -64.320643 -5.885787 0.000000 0.000000 0.000000 17.998413 39.396627 18.313587 41.249369 39.448024 9.712163 4.702825 36.926611 2.402667 0.000000 0.000000 0.000000 
-0.115331 0.853354 0.012791 -2.407003 -32.146595 -1.309588 15.635468 6.072823 -29.796374 8.892983 0.438734 49.056316 3.105152 6.823752 6.778082 0.000000 0.000000 0.000000 3.558138 8.927673 -38.140806 19.714211 -1.079742 45.020045 -6.785433 -18.352825 1.872144 0.000000 0.000000 0.000000 0.334197 7.536404 59.136293 -3.984516 2.786256 8.674686 -11.049848 -0.978756 5.257446 9.205861 -5.534352 -12.277128 0.000000 0.000000 0.000000 -11.818980 -34.734597 16.376522 -39.226779 -15.456792 -0.031574 18.378217 -62.712830 -7.844430 0.000000 0.000000 0.000000 16.567759 39.208555 17.810241 42.410605 40.373192 10.366163 3.372988 37.073121 1.993615 0.000000 0.000000 0.000000 
-0.123299 0.851316 0.015753 -1.981962 -30.585244 -1.200728 14.957613 5.724158 -30.744222 9.040695 -0.032063 49.157678 2.886762 6.455502 6.271957 0.000000 0.000000 0.000000 3.109205 8.813798 -38.723270 20.107862 -1.604969 45.216491 -7.367587 -19.743612 2.275322 0.000000 0.000000 0.000000 0.066620 7.245153 59.288165 -3.888598 2.627944 8.113719 -11.483613 -0.217875 5.567212 8.909463 -5.069981 -13.513786 0.000000 0.000000 0.000000 -11.171215 -35.856852 16.517175 -39.382605 -17.077603 0.514292 22.014503 -62.000632 -10.081894 0.000000 0.000000 0.000000 15.065973 38.940240 17.546466 43.468828 41.227208 10.941847 1.530040 36.720253 1.466316 0.000000 0.000000 0.000000 
-0.130453 0.849640 0.019233 -1.197090 -27.928184 -1.325741 14.253180 5.077332 -31.237002 8.586816 -0.456699 48.395233 2.476208 5.795246 6.048480 0.000000 0.000000 0.000000 1.543120 8.155492 -39.227074 21.019489 -2.582350 45.228827 -8.153091 -21.357781 2.244273 0.000000 0.000000 0.000000 -0.080212 6.574410 59.637906 -3.990354 2.589492 7.728463 -11.568859 0.114392 6.189119 8.926383 -4.811962 -14.859873 0.000000 0.000000 0.000000 -9.322909 -36.797050 16.208094 -40.605125 -19.349602 1.342227 25.706208 -60.564713 -12.055250 0.000000 0.000000 0.000000 13.221448 38.415661 16.948297 44.293657 42.190880 11.511873 0.126255 36.795167 1.080467 0.000000 0.000000 0.000000 
-0.136859 0.848572 0.023421 -0.621553 -25.139183 -1.185737 13.408645 4.467388 -32.293754 8.329709 -1.042807 47.433245 2.269990 5.517224 6.030832 0.000000 0.000000 0.000000 0.434757 7.554505 -39.555694 20.969992 -3.212561 45.258444 -8.962777 -22.963354 1.743137 0.000000 0.000000 0.000000 -0.147837 5.817713 60.177347 -3.985593 2.472655 7.123410 -12.094778 1.235295 6.654839 9.407478 -4.822544 -15.719460 0.000000 0.000000 0.000000 -9.188340 -37.774856 16.304741 -40.173142 -21.074310 1.886951 27.550770 -60.739130 -13.481935 0.000000 0.000000 0.000000 12.658182 37.667347 16.851367 44.610918 42.522189 11.716254 -1.286547 36.604122 0.732608 0.000000 0.000000 0.000000 
-0.142442 0.848937 0.028300 0.044394 -22.532593 -0.956789 12.621546 3.817168 -32.863731 7.438446 -1.186725 46.001287 1.910932 4.833813 5.278585 0.000000 0.000000 0.000000 -0.748973 6.820410 -39.458079 20.602165 -3.630943 44.767528 -9.760101 -24.576107 1.292585 0.000000 0.000000 0.000000 -0.672363 5.317354 60.353830 -3.794131 2.314565 7.125106 -12.657711 2.036171 6.654919 9.715928 -4.893646 -15.622021 0.000000 0.000000 0.000000 -9.266771 -38.597015 16.468520 -39.279530 -21.953315 2.118972 30.056888 -60.363323 -15.120317 0.000000 0.000000 0.000000 12.679759 37.248360 17.046766 44.357681 42.520421 11.624257 -2.283721 37.238036 0.507985 0.000000 0.000000 0.000000 
-0.147471 0.851757 0.033705 0.561981 -19.622686 -0.373422 12.040915 3.224501 -33.594367 6.575524 -1.418896 43.709391 1.890822 5.030562 6.077589 0.000000 0.000000 0.000000 -1.270834 6.226842 -39.214891 19.248156 -3.670815 44.099296 -9.900119 -24.746228 0.964376 0.000000 0.000000 0.000000 -1.108651 4.692943 60.828172 -3.774293 2.214362 6.654151 -12.765091 2.807151 7.334663 10.375880 -4.985745 -16.718916 0.000000 0.000000 0.000000 -6.944088 -38.972850 15.701404 -39.724238 -24.206170 2.861069 31.538052 -59.748331 -16.007532 0.000000 0.000000 0.000000 11.555141 36.765028 16.805558 45.024639 43.010940 12.030057 -3.577862 36.977626 0.173363 0.000000 0.000000 0.000000 
-0.151612 0.856105 0.039730 0.804693 -16.890747 -0.067862 12.064914 2.712698 -33.001637 5.019007 -1.180626 41.075427 1.820083 5.026474 6.191825 0.000000 0.000000 0.000000 -1.852481 5.496264 -38.291157 18.188438 -3.735744 42.667551 -10.315954 -25.486240 0.792564 0.000000 0.000000 0.000000 -1.993308 4.434296 61.749344 -3.059865 1.709115 5.604846 -12.898664 4.177918 8.095973 10.536152 -4.790355 -17.353823 0.000000 0.000000 0.000000 -5.996480 -39.297946 15.257477 -39.171294 -25.482320 3.150577 31.303154 -59.393118 -16.085145 0.000000 0.000000 0.000000 10.728087 35.898872 16.549052 45.991530 43.569078 12.629799 -4.771275 37.580350 -0.102022 0.000000 0.000000 0.000000 
